<?xml version="1.0" encoding="UTF-8" standalone="no"?><svg xmlns="http://www.w3.org/2000/svg" xmlns:xlink="http://www.w3.org/1999/xlink" contentScriptType="application/ecmascript" contentStyleType="text/css" height="797px" preserveAspectRatio="none" style="width:757px;height:797px;" version="1.1" viewBox="0 0 757 797" width="757px" zoomAndPan="magnify"><defs><filter height="300%" id="fhy8ifo" width="300%" x="-1" y="-1"><feGaussianBlur result="blurOut" stdDeviation="2.0"/><feColorMatrix in="blurOut" result="blurOut2" type="matrix" values="0 0 0 0 0 0 0 0 0 0 0 0 0 0 0 0 0 0 .4 0"/><feOffset dx="4.0" dy="4.0" in="blurOut2" result="blurOut3"/><feBlend in="SourceGraphic" in2="blurOut3" mode="normal"/></filter></defs><g><rect fill="#FEFECE" filter="url(#fhy8ifo)" height="92.1719" rx="12.5" ry="12.5" style="stroke: #A80036; stroke-width: 1.5;" width="129" x="6" y="8"/><line style="stroke: #A80036; stroke-width: 1.5;" x1="6" x2="135" y1="34.2969" y2="34.2969"/><text fill="#000000" font-family="sans-serif" font-size="14" lengthAdjust="spacingAndGlyphs" textLength="20" x="60.5" y="25.9951">Init</text><text fill="#000000" font-family="sans-serif" font-size="12" lengthAdjust="spacingAndGlyphs" textLength="34" x="11" y="50.4355">a = 1</text><text fill="#000000" font-family="sans-serif" font-size="12" lengthAdjust="spacingAndGlyphs" textLength="34" x="11" y="64.4043">b = 1</text><text fill="#000000" font-family="sans-serif" font-size="12" lengthAdjust="spacingAndGlyphs" textLength="33" x="11" y="78.373">c = 1</text><text fill="#000000" font-family="sans-serif" font-size="12" lengthAdjust="spacingAndGlyphs" textLength="109" x="11" y="92.3418">status = pending</text><rect fill="#FEFECE" filter="url(#fhy8ifo)" height="78.2031" rx="12.5" ry="12.5" style="stroke: #A80036; stroke-width: 1.5;" width="129" x="6" y="192"/><line style="stroke: #A80036; stroke-width: 1.5;" x1="6" x2="135" y1="218.2969" y2="218.2969"/><text fill="#000000" font-family="sans-serif" font-size="14" lengthAdjust="spacingAndGlyphs" textLength="69" x="36" y="209.9951">UpdateAB</text><text fill="#000000" font-family="sans-serif" font-size="12" lengthAdjust="spacingAndGlyphs" textLength="34" x="11" y="234.4355">a = 2</text><text fill="#000000" font-family="sans-serif" font-size="12" lengthAdjust="spacingAndGlyphs" textLength="34" x="11" y="248.4043">b = 2</text><text fill="#000000" font-family="sans-serif" font-size="12" lengthAdjust="spacingAndGlyphs" textLength="109" x="11" y="262.373">status = pending</text><rect fill="#FEFECE" filter="url(#fhy8ifo)" height="50.2656" rx="12.5" ry="12.5" style="stroke: #A80036; stroke-width: 1.5;" width="80" x="141.5" y="331"/><line style="stroke: #A80036; stroke-width: 1.5;" x1="141.5" x2="221.5" y1="357.2969" y2="357.2969"/><text fill="#000000" font-family="sans-serif" font-size="14" lengthAdjust="spacingAndGlyphs" textLength="60" x="151.5" y="348.9951">UpdateB</text><text fill="#000000" font-family="sans-serif" font-size="12" lengthAdjust="spacingAndGlyphs" textLength="34" x="146.5" y="373.4355">b = 3</text><rect fill="#FEFECE" filter="url(#fhy8ifo)" height="50.2656" rx="12.5" ry="12.5" style="stroke: #A80036; stroke-width: 1.5;" width="68" x="208.5" y="29"/><line style="stroke: #A80036; stroke-width: 1.5;" x1="208.5" x2="276.5" y1="55.2969" y2="55.2969"/><text fill="#000000" font-family="sans-serif" font-size="14" lengthAdjust="spacingAndGlyphs" textLength="48" x="218.5" y="46.9951">FetchA</text><text fill="#000000" font-family="sans-serif" font-size="12" lengthAdjust="spacingAndGlyphs" textLength="34" x="213.5" y="71.4355">a = 2</text><rect fill="#FEFECE" filter="url(#fhy8ifo)" height="50.2656" rx="12.5" ry="12.5" style="stroke: #A80036; stroke-width: 1.5;" width="144" x="170.5" y="206"/><line style="stroke: #A80036; stroke-width: 1.5;" x1="170.5" x2="314.5" y1="232.2969" y2="232.2969"/><text fill="#000000" font-family="sans-serif" font-size="14" lengthAdjust="spacingAndGlyphs" textLength="49" x="218" y="223.9951">FetchC</text><text fill="#000000" font-family="sans-serif" font-size="12" lengthAdjust="spacingAndGlyphs" textLength="124" x="175.5" y="248.4355">status.error = error</text><rect fill="#FEFECE" filter="url(#fhy8ifo)" height="64.2344" rx="12.5" ry="12.5" style="stroke: #A80036; stroke-width: 1.5;" width="121" x="261" y="442"/><line style="stroke: #A80036; stroke-width: 1.5;" x1="261" x2="382" y1="468.2969" y2="468.2969"/><text fill="#000000" font-family="sans-serif" font-size="14" lengthAdjust="spacingAndGlyphs" textLength="60" x="291.5" y="459.9951">UpdateC</text><text fill="#000000" font-family="sans-serif" font-size="12" lengthAdjust="spacingAndGlyphs" textLength="33" x="266" y="484.4355">c = 2</text><text fill="#000000" font-family="sans-serif" font-size="12" lengthAdjust="spacingAndGlyphs" textLength="101" x="266" y="498.4043">status=pending</text><rect fill="#FEFECE" filter="url(#fhy8ifo)" height="50.2656" rx="12.5" ry="12.5" style="stroke: #A80036; stroke-width: 1.5;" width="177" x="163" y="724"/><line style="stroke: #A80036; stroke-width: 1.5;" x1="163" x2="340" y1="750.2969" y2="750.2969"/><text fill="#000000" font-family="sans-serif" font-size="14" lengthAdjust="spacingAndGlyphs" textLength="47" x="228" y="741.9951">Queue</text><text fill="#000000" font-family="sans-serif" font-size="12" lengthAdjust="spacingAndGlyphs" textLength="157" x="168" y="766.4355">getLastUpdate(): Update</text><rect fill="#FEFECE" filter="url(#fhy8ifo)" height="78.2031" rx="12.5" ry="12.5" style="stroke: #A80036; stroke-width: 1.5;" width="78" x="423.5" y="710"/><line style="stroke: #A80036; stroke-width: 1.5;" x1="423.5" x2="501.5" y1="736.2969" y2="736.2969"/><text fill="#000000" font-family="sans-serif" font-size="14" lengthAdjust="spacingAndGlyphs" textLength="44" x="440.5" y="727.9951">Status</text><text fill="#000000" font-family="sans-serif" font-size="12" lengthAdjust="spacingAndGlyphs" textLength="51" x="428.5" y="752.4355">pending</text><text fill="#000000" font-family="sans-serif" font-size="12" lengthAdjust="spacingAndGlyphs" textLength="58" x="428.5" y="766.4043">complete</text><text fill="#000000" font-family="sans-serif" font-size="12" lengthAdjust="spacingAndGlyphs" textLength="31" x="428.5" y="780.373">error</text><rect fill="#FEFECE" filter="url(#fhy8ifo)" height="50.2656" rx="12.5" ry="12.5" style="stroke: #A80036; stroke-width: 1.5;" width="89" x="492" y="583"/><line style="stroke: #A80036; stroke-width: 1.5;" x1="492" x2="581" y1="609.2969" y2="609.2969"/><text fill="#000000" font-family="sans-serif" font-size="14" lengthAdjust="spacingAndGlyphs" textLength="69" x="502" y="600.9951">UpdateB2</text><text fill="#000000" font-family="sans-serif" font-size="12" lengthAdjust="spacingAndGlyphs" textLength="34" x="497" y="625.4355">b = 4</text><rect fill="#FEFECE" filter="url(#fhy8ifo)" height="50.2656" rx="12.5" ry="12.5" style="stroke: #A80036; stroke-width: 1.5;" width="78" x="311.5" y="29"/><line style="stroke: #A80036; stroke-width: 1.5;" x1="311.5" x2="389.5" y1="55.2969" y2="55.2969"/><text fill="#000000" font-family="sans-serif" font-size="14" lengthAdjust="spacingAndGlyphs" textLength="58" x="321.5" y="46.9951">FetchB2</text><text fill="#000000" font-family="sans-serif" font-size="12" lengthAdjust="spacingAndGlyphs" textLength="34" x="316.5" y="71.4355">b = 5</text><rect fill="#FEFECE" filter="url(#fhy8ifo)" height="64.2344" rx="12.5" ry="12.5" style="stroke: #A80036; stroke-width: 1.5;" width="126" x="622.5" y="199"/><line style="stroke: #A80036; stroke-width: 1.5;" x1="622.5" x2="748.5" y1="225.2969" y2="225.2969"/><text fill="#000000" font-family="sans-serif" font-size="14" lengthAdjust="spacingAndGlyphs" textLength="58" x="656.5" y="216.9951">Rollback</text><text fill="#000000" font-family="sans-serif" font-size="12" lengthAdjust="spacingAndGlyphs" textLength="106" x="627.5" y="241.4355">b = 3 (UpdateB),</text><text fill="#000000" font-family="sans-serif" font-size="12" lengthAdjust="spacingAndGlyphs" textLength="66" x="627.5" y="255.4043">c = 1 (Init)</text><rect fill="#FEFECE" filter="url(#fhy8ifo)" height="50" rx="12.5" ry="12.5" style="stroke: #A80036; stroke-width: 1.5;" width="52" x="499.5" y="206"/><line style="stroke: #A80036; stroke-width: 1.5;" x1="499.5" x2="551.5" y1="232.2969" y2="232.2969"/><text fill="#000000" font-family="sans-serif" font-size="14" lengthAdjust="spacingAndGlyphs" textLength="32" x="509.5" y="223.9951">User</text><path d="M340.066,749 C367.117,749 395.693,749 418.428,749 " fill="none" style="stroke: #A80036; stroke-width: 1.0;"/><polygon fill="#A80036" points="423.483,749,414.483,745,418.483,749,414.483,753,423.483,749" style="stroke: #A80036; stroke-width: 1.0;"/><text fill="#000000" font-family="sans-serif" font-size="13" lengthAdjust="spacingAndGlyphs" textLength="47" x="358.25" y="742.0669">change</text><path d="M70.5,100.067 C70.5,126.746 70.5,160.369 70.5,186.727 " fill="none" style="stroke: #A80036; stroke-width: 1.0;"/><polygon fill="#A80036" points="70.5,191.898,74.5,182.898,70.5,186.898,66.5,182.898,70.5,191.898" style="stroke: #A80036; stroke-width: 1.0;"/><path d="M105.0126,270.244 C121.579,288.601 141.072,310.201 156.232,327.001 " fill="none" style="stroke: #A80036; stroke-width: 1.0;"/><polygon fill="#A80036" points="159.595,330.727,156.534,321.3659,156.2448,327.0154,150.5954,326.7262,159.595,330.727" style="stroke: #A80036; stroke-width: 1.0;"/><path d="M61.0271,270.244 C55.8577,294.392 50.5,326.334 50.5,355 C50.5,355 50.5,355 50.5,609 C50.5,665.834 105.536,701.249 158.011,722.0987 " fill="none" style="stroke: #A80036; stroke-width: 1.0;"/><polygon fill="#A80036" points="162.753,723.9469,155.8199,716.9517,158.0943,722.1312,152.9148,724.4056,162.753,723.9469" style="stroke: #A80036; stroke-width: 1.0;"/><text fill="#000000" font-family="sans-serif" font-size="13" lengthAdjust="spacingAndGlyphs" textLength="76" x="51.5" y="471.0669">add FetchA,</text><text fill="#000000" font-family="sans-serif" font-size="13" lengthAdjust="spacingAndGlyphs" textLength="69" x="57" y="486.1997">run FetchA</text><path d="M177.93,381.084 C173.1,418.308 166.297,491.905 177.5,553 C188.781,614.525 218.532,681.807 236.69,719.0632 " fill="none" style="stroke: #A80036; stroke-width: 1.0;"/><polygon fill="#A80036" points="239.063,723.8965,238.6862,714.0549,236.859,719.4085,231.5054,717.5813,239.063,723.8965" style="stroke: #A80036; stroke-width: 1.0;"/><text fill="#000000" font-family="sans-serif" font-size="13" lengthAdjust="spacingAndGlyphs" textLength="115" x="178.5" y="549.0669">add to lastUpdate</text><path d="M210.508,381.035 C230.564,397.653 257.552,420.015 279.894,438.526 " fill="none" style="stroke: #A80036; stroke-width: 1.0;"/><polygon fill="#A80036" points="284.008,441.936,279.6299,433.1138,280.1579,438.7459,274.5257,439.2739,284.008,441.936" style="stroke: #A80036; stroke-width: 1.0;"/><path d="M313.538,506.051 C299.923,559.15 272.351,666.682 259.034,718.6164 " fill="none" style="stroke: #A80036; stroke-width: 1.0;"/><polygon fill="#A80036" points="257.714,723.766,263.8244,716.0418,258.9561,718.9227,256.0752,714.0544,257.714,723.766" style="stroke: #A80036; stroke-width: 1.0;"/><text fill="#000000" font-family="sans-serif" font-size="13" lengthAdjust="spacingAndGlyphs" textLength="133" x="294.5" y="612.5669">add FetchC to queue</text><path d="M372.18,506.115 C408.774,528.582 457.696,558.618 492.622,580.061 " fill="none" style="stroke: #A80036; stroke-width: 1.0;"/><polygon fill="#A80036" points="497.24,582.896,491.6622,574.7789,492.9787,580.2804,487.4772,581.5969,497.24,582.896" style="stroke: #A80036; stroke-width: 1.0;"/><path d="M491.969,630.719 C441.667,655.252 359.799,695.1805 305.793,721.5205 " fill="none" style="stroke: #A80036; stroke-width: 1.0;"/><polygon fill="#A80036" points="300.98,723.8674,310.8226,723.5155,305.4736,721.6747,307.3143,716.3258,300.98,723.8674" style="stroke: #A80036; stroke-width: 1.0;"/><text fill="#000000" font-family="sans-serif" font-size="13" lengthAdjust="spacingAndGlyphs" textLength="141" x="421.5" y="676.0669">add FetchB2 to queue</text><path d="M242.5,79.333 C242.5,111.069 242.5,166.545 242.5,200.599 " fill="none" style="stroke: #A80036; stroke-width: 1.0;"/><polygon fill="#A80036" points="242.5,205.874,246.5,196.874,242.5,200.874,238.5,196.874,242.5,205.874" style="stroke: #A80036; stroke-width: 1.0;"/><text fill="#000000" font-family="sans-serif" font-size="13" lengthAdjust="spacingAndGlyphs" textLength="65" x="247.5" y="143.0669">commit a,</text><text fill="#000000" font-family="sans-serif" font-size="13" lengthAdjust="spacingAndGlyphs" textLength="69" x="247.5" y="158.1997">run FetchC</text><path d="M314.757,246.036 C355.455,252.458 407.164,257.206 453,251 C466.821,249.129 481.731,245.337 494.415,241.553 " fill="none" style="stroke: #A80036; stroke-width: 1.0;"/><polygon fill="#A80036" points="499.341,240.051,489.5656,238.8502,494.5584,241.5095,491.8992,246.5023,499.341,240.051" style="stroke: #A80036; stroke-width: 1.0;"/><text fill="#000000" font-family="sans-serif" font-size="13" lengthAdjust="spacingAndGlyphs" textLength="90" x="362" y="247.0669">status = error</text><path d="M499.485,231 C459.057,231 379.573,231 319.651,231 " fill="none" style="stroke: #A80036; stroke-width: 1.0;"/><polygon fill="#A80036" points="314.645,231,323.645,235,319.645,231,323.645,227,314.645,231" style="stroke: #A80036; stroke-width: 1.0;"/><text fill="#000000" font-family="sans-serif" font-size="13" lengthAdjust="spacingAndGlyphs" textLength="148" x="333" y="224.0669">retry, status = pending</text><path d="M551.563,231 C569.427,231 594.008,231 617.239,231 " fill="none" style="stroke: #A80036; stroke-width: 1.0;"/><polygon fill="#A80036" points="622.484,231,613.484,227,617.484,231,613.484,235,622.484,231" style="stroke: #A80036; stroke-width: 1.0;"/><text fill="#000000" font-family="sans-serif" font-size="13" lengthAdjust="spacingAndGlyphs" textLength="34" x="570" y="224.0669">abort</text></g></svg>